<?xml version="1.0" encoding="iso-8859-1"?>
<!-- Uploaded to: SVG Repo, www.svgrepo.com, Generator: SVG Repo Mixer Tools -->
<!DOCTYPE svg PUBLIC "-//W3C//DTD SVG 1.1//EN" "http://www.w3.org/Graphics/SVG/1.1/DTD/svg11.dtd">
<svg fill="#000000" height="800px" width="800px" version="1.1" id="Capa_1" xmlns="http://www.w3.org/2000/svg" xmlns:xlink="http://www.w3.org/1999/xlink" 
	 viewBox="0 0 212.279 212.279" xml:space="preserve">
<path d="M212.171,177.724l-5.527-26.218c-0.001-0.003-0.001-0.006-0.002-0.009L193.02,86.876h4.305c2.762,0,5-2.239,5-5v-28.02
	c0-13.969-11.364-25.333-25.333-25.333H33.849c-13.969,0-25.333,11.364-25.333,25.333v28.02c0,2.761,2.239,5,5,5h5.744
	L5.639,151.491c-0.001,0.007-0.003,0.014-0.004,0.021l-5.526,26.212c-0.569,2.702,1.159,5.354,3.861,5.924
	c0.348,0.073,0.694,0.108,1.036,0.108c2.314,0,4.391-1.615,4.888-3.97l4.696-22.277h45.935l4.696,22.277
	c0.497,2.354,2.574,3.97,4.888,3.97c0.341,0,0.688-0.035,1.036-0.108c2.702-0.57,4.431-3.222,3.861-5.924l-4.261-20.214h70.79
	l-4.261,20.214c-0.569,2.702,1.159,5.354,3.861,5.924c0.348,0.073,0.694,0.108,1.036,0.108c2.313,0,4.392-1.615,4.888-3.97
	l4.696-22.277h45.935l4.696,22.277c0.496,2.354,2.573,3.97,4.888,3.97c0.342,0,0.688-0.035,1.036-0.108
	C211.012,183.078,212.74,180.426,212.171,177.724z M45.634,86.876l12.782,60.633H16.698L29.48,86.876H45.634z M55.854,86.876
	h100.571l-12.782,60.633H68.636L55.854,86.876z M166.645,86.876H182.8l12.782,60.633h-41.719L166.645,86.876z"/>
</svg>