<?xml version="1.0" ?><!-- Uploaded to: SVG Repo, www.svgrepo.com, Generator: SVG Repo Mixer Tools -->
<svg width="800px" height="800px" viewBox="0 0 64 64" data-name="Layer 1" id="Layer_1" xmlns="http://www.w3.org/2000/svg"><defs><style>.cls-1{fill:#231f20;}</style></defs><title/><path class="cls-1" d="M51.31,51.05H32.08a1,1,0,0,1-.87-.5L11.82,16.94a1,1,0,0,1,.37-1.36l4.3-2.49a1,1,0,0,1,.76-.1,1,1,0,0,1,.6.46L35.2,43.5c2.57-.07,8.67-.18,11.59.07,4.67.41,5.48,6.1,5.51,6.35a1,1,0,0,1-.24.79A1,1,0,0,1,51.31,51.05Zm-18.65-2H50.05c-.41-1.31-1.37-3.31-3.43-3.49-3.08-.26-9.93-.1-12-.05a1,1,0,0,1-.89-.5L16.62,15.32l-2.57,1.49Z"/><path class="cls-1" d="M32.7,45.56a1,1,0,0,1,0-2l1.94-.05a1,1,0,0,1,1,1,1,1,0,0,1-1,1l-1.94.05Z"/><path class="cls-1" d="M47.5,39.75h-.06c-2.6-.17-6.67-2.07-9.47-4.42-1.41-1.18-3-2.91-2.65-4.44a1,1,0,0,1,.27-.48l1.79-1.78a1,1,0,0,1,1.69.54,1.88,1.88,0,0,0,.34.68A9.36,9.36,0,0,0,41,31.52,18.6,18.6,0,0,0,49,35.44a3.85,3.85,0,0,0,.65.05,1,1,0,0,1,1.07.52,1,1,0,0,1-.19,1.19l-2.27,2.26A1,1,0,0,1,47.5,39.75ZM37.31,31.52a6.24,6.24,0,0,0,1.94,2.27,19,19,0,0,0,7.88,3.92l.5-.5a21.64,21.64,0,0,1-7.9-4.16,10.47,10.47,0,0,1-1.93-2Z"/><path class="cls-1" d="M49.6,37.49a6.32,6.32,0,0,1-.94-.07,20.45,20.45,0,0,1-8.93-4.37,10.91,10.91,0,0,1-2-2.07,3.7,3.7,0,0,1-.66-1.48,1,1,0,0,1,.28-.87l1.23-1.24a1,1,0,0,1,.59-.29,2.3,2.3,0,0,1,.37,0c2.56,0,6.89,2,9.86,4.44A7.6,7.6,0,0,1,52,35a1,1,0,0,1-.26.93l-1.3,1.31a1,1,0,0,1-.51.28A2.17,2.17,0,0,1,49.6,37.49Zm-10.35-7.9c0,.07.09.16.16.26A9.36,9.36,0,0,0,41,31.52,18.6,18.6,0,0,0,49,35.44l.41.05.53-.55a8.14,8.14,0,0,0-1.74-1.89c-2.5-2.09-6.29-3.87-8.41-4Z"/></svg>